<svg xmlns="http://www.w3.org/2000/svg" xmlns:xlink="http://www.w3.org/1999/xlink" height="158.0" viewBox="0.0 0.0 236.5 157.5" width="237.0">
<g class="graph" id="graph0" transform="scale(1.0 1.0) rotate(0) translate(4 153.5)">
<title>G</title>
<polygon fill="white" points="-4,4 -4,-153.5 232.5,-153.5 232.5,4 -4,4" stroke="transparent" />
<g class="cluster" id="clust2">
<title>cluster_legend</title>
</g>

<g class="node" id="node1">
<title>node0</title>
<svg height="45px" preserveAspectRatio="xMinYMin meet" version="1.1" viewBox="0 0 201.32 59.93625" width="151px" x="4.5" y="-140.5">
 <defs>
  <style type="text/css">
*{stroke-linecap:butt;stroke-linejoin:round;}
  </style>
 </defs>
 <g id="figure_1">
  <g id="patch_1">
   <path d="M 0 59.93625  L 201.32 59.93625  L 201.32 0  L 0 0  z " style="fill:#ffffff;" />
  </g>
  <g id="axes_1">
   <g id="patch_2">
    <path d="M 17.18 30.219375  L 201.32 30.219375  L 201.32 3.039375  L 17.18 3.039375  z " style="fill:#ffffff;" />
   </g>
   <g id="patch_3">
    <path clip-path="url(#pe8b4251857)" d="M 17.18 30.219375  L 26.410075 30.219375  L 26.410075 3.039375  L 17.18 3.039375  z " style="fill:#fefebb;stroke:#444443;stroke-linejoin:miter;stroke-width:0.5;" />
   </g>
   <g id="patch_4">
    <path clip-path="url(#pe8b4251857)" d="M 26.410075 30.219375  L 35.64015 30.219375  L 35.64015 30.219375  L 26.410075 30.219375  z " style="fill:#fefebb;stroke:#444443;stroke-linejoin:miter;stroke-width:0.5;" />
   </g>
   <g id="patch_5">
    <path clip-path="url(#pe8b4251857)" d="M 35.64015 30.219375  L 44.870226 30.219375  L 44.870226 30.219375  L 35.64015 30.219375  z " style="fill:#fefebb;stroke:#444443;stroke-linejoin:miter;stroke-width:0.5;" />
   </g>
   <g id="patch_6">
    <path clip-path="url(#pe8b4251857)" d="M 44.870226 30.219375  L 54.100301 30.219375  L 54.100301 30.219375  L 44.870226 30.219375  z " style="fill:#fefebb;stroke:#444443;stroke-linejoin:miter;stroke-width:0.5;" />
   </g>
   <g id="patch_7">
    <path clip-path="url(#pe8b4251857)" d="M 54.100301 30.219375  L 63.330376 30.219375  L 63.330376 30.219375  L 54.100301 30.219375  z " style="fill:#fefebb;stroke:#444443;stroke-linejoin:miter;stroke-width:0.5;" />
   </g>
   <g id="patch_8">
    <path clip-path="url(#pe8b4251857)" d="M 63.330376 30.219375  L 72.560451 30.219375  L 72.560451 30.219375  L 63.330376 30.219375  z " style="fill:#fefebb;stroke:#444443;stroke-linejoin:miter;stroke-width:0.5;" />
   </g>
   <g id="patch_9">
    <path clip-path="url(#pe8b4251857)" d="M 72.560451 30.219375  L 81.790526 30.219375  L 81.790526 30.219375  L 72.560451 30.219375  z " style="fill:#fefebb;stroke:#444443;stroke-linejoin:miter;stroke-width:0.5;" />
   </g>
   <g id="patch_10">
    <path clip-path="url(#pe8b4251857)" d="M 81.790526 30.219375  L 91.020602 30.219375  L 91.020602 30.219375  L 81.790526 30.219375  z " style="fill:#fefebb;stroke:#444443;stroke-linejoin:miter;stroke-width:0.5;" />
   </g>
   <g id="patch_11">
    <path clip-path="url(#pe8b4251857)" d="M 91.020602 30.219375  L 100.250677 30.219375  L 100.250677 30.219375  L 91.020602 30.219375  z " style="fill:#fefebb;stroke:#444443;stroke-linejoin:miter;stroke-width:0.5;" />
   </g>
   <g id="patch_12">
    <path clip-path="url(#pe8b4251857)" d="M 100.250677 30.219375  L 109.480752 30.219375  L 109.480752 30.219375  L 100.250677 30.219375  z " style="fill:#fefebb;stroke:#444443;stroke-linejoin:miter;stroke-width:0.5;" />
   </g>
   <g id="patch_13">
    <path clip-path="url(#pe8b4251857)" d="M 109.480752 30.219375  L 118.710827 30.219375  L 118.710827 30.219375  L 109.480752 30.219375  z " style="fill:#fefebb;stroke:#444443;stroke-linejoin:miter;stroke-width:0.5;" />
   </g>
   <g id="patch_14">
    <path clip-path="url(#pe8b4251857)" d="M 118.710827 30.219375  L 127.940902 30.219375  L 127.940902 30.219375  L 118.710827 30.219375  z " style="fill:#fefebb;stroke:#444443;stroke-linejoin:miter;stroke-width:0.5;" />
   </g>
   <g id="patch_15">
    <path clip-path="url(#pe8b4251857)" d="M 127.940902 30.219375  L 137.170977 30.219375  L 137.170977 30.219375  L 127.940902 30.219375  z " style="fill:#fefebb;stroke:#444443;stroke-linejoin:miter;stroke-width:0.5;" />
   </g>
   <g id="patch_16">
    <path clip-path="url(#pe8b4251857)" d="M 137.170977 30.219375  L 146.401053 30.219375  L 146.401053 30.219375  L 137.170977 30.219375  z " style="fill:#fefebb;stroke:#444443;stroke-linejoin:miter;stroke-width:0.5;" />
   </g>
   <g id="patch_17">
    <path clip-path="url(#pe8b4251857)" d="M 146.401053 30.219375  L 155.631128 30.219375  L 155.631128 30.219375  L 146.401053 30.219375  z " style="fill:#fefebb;stroke:#444443;stroke-linejoin:miter;stroke-width:0.5;" />
   </g>
   <g id="patch_18">
    <path clip-path="url(#pe8b4251857)" d="M 155.631128 30.219375  L 164.861203 30.219375  L 164.861203 30.219375  L 155.631128 30.219375  z " style="fill:#fefebb;stroke:#444443;stroke-linejoin:miter;stroke-width:0.5;" />
   </g>
   <g id="patch_19">
    <path clip-path="url(#pe8b4251857)" d="M 164.861203 30.219375  L 174.091278 30.219375  L 174.091278 30.219375  L 164.861203 30.219375  z " style="fill:#fefebb;stroke:#444443;stroke-linejoin:miter;stroke-width:0.5;" />
   </g>
   <g id="patch_20">
    <path clip-path="url(#pe8b4251857)" d="M 174.091278 30.219375  L 183.321353 30.219375  L 183.321353 30.219375  L 174.091278 30.219375  z " style="fill:#fefebb;stroke:#444443;stroke-linejoin:miter;stroke-width:0.5;" />
   </g>
   <g id="patch_21">
    <path clip-path="url(#pe8b4251857)" d="M 183.321353 30.219375  L 192.551429 30.219375  L 192.551429 30.219375  L 183.321353 30.219375  z " style="fill:#fefebb;stroke:#444443;stroke-linejoin:miter;stroke-width:0.5;" />
   </g>
   <g id="patch_22">
    <path clip-path="url(#pe8b4251857)" d="M 17.18 3.039375  L 26.410075 3.039375  L 26.410075 3.039375  L 17.18 3.039375  z " style="fill:#a1dab4;stroke:#444443;stroke-linejoin:miter;stroke-width:0.5;" />
   </g>
   <g id="patch_23">
    <path clip-path="url(#pe8b4251857)" d="M 26.410075 30.219375  L 35.64015 30.219375  L 35.64015 30.219375  L 26.410075 30.219375  z " style="fill:#a1dab4;stroke:#444443;stroke-linejoin:miter;stroke-width:0.5;" />
   </g>
   <g id="patch_24">
    <path clip-path="url(#pe8b4251857)" d="M 35.64015 30.219375  L 44.870226 30.219375  L 44.870226 30.219375  L 35.64015 30.219375  z " style="fill:#a1dab4;stroke:#444443;stroke-linejoin:miter;stroke-width:0.5;" />
   </g>
   <g id="patch_25">
    <path clip-path="url(#pe8b4251857)" d="M 44.870226 30.219375  L 54.100301 30.219375  L 54.100301 30.219375  L 44.870226 30.219375  z " style="fill:#a1dab4;stroke:#444443;stroke-linejoin:miter;stroke-width:0.5;" />
   </g>
   <g id="patch_26">
    <path clip-path="url(#pe8b4251857)" d="M 54.100301 30.219375  L 63.330376 30.219375  L 63.330376 30.219375  L 54.100301 30.219375  z " style="fill:#a1dab4;stroke:#444443;stroke-linejoin:miter;stroke-width:0.5;" />
   </g>
   <g id="patch_27">
    <path clip-path="url(#pe8b4251857)" d="M 63.330376 30.219375  L 72.560451 30.219375  L 72.560451 30.219375  L 63.330376 30.219375  z " style="fill:#a1dab4;stroke:#444443;stroke-linejoin:miter;stroke-width:0.5;" />
   </g>
   <g id="patch_28">
    <path clip-path="url(#pe8b4251857)" d="M 72.560451 30.219375  L 81.790526 30.219375  L 81.790526 30.219375  L 72.560451 30.219375  z " style="fill:#a1dab4;stroke:#444443;stroke-linejoin:miter;stroke-width:0.5;" />
   </g>
   <g id="patch_29">
    <path clip-path="url(#pe8b4251857)" d="M 81.790526 30.219375  L 91.020602 30.219375  L 91.020602 30.219375  L 81.790526 30.219375  z " style="fill:#a1dab4;stroke:#444443;stroke-linejoin:miter;stroke-width:0.5;" />
   </g>
   <g id="patch_30">
    <path clip-path="url(#pe8b4251857)" d="M 91.020602 30.219375  L 100.250677 30.219375  L 100.250677 30.219375  L 91.020602 30.219375  z " style="fill:#a1dab4;stroke:#444443;stroke-linejoin:miter;stroke-width:0.5;" />
   </g>
   <g id="patch_31">
    <path clip-path="url(#pe8b4251857)" d="M 100.250677 30.219375  L 109.480752 30.219375  L 109.480752 30.219375  L 100.250677 30.219375  z " style="fill:#a1dab4;stroke:#444443;stroke-linejoin:miter;stroke-width:0.5;" />
   </g>
   <g id="patch_32">
    <path clip-path="url(#pe8b4251857)" d="M 109.480752 30.219375  L 118.710827 30.219375  L 118.710827 30.219375  L 109.480752 30.219375  z " style="fill:#a1dab4;stroke:#444443;stroke-linejoin:miter;stroke-width:0.5;" />
   </g>
   <g id="patch_33">
    <path clip-path="url(#pe8b4251857)" d="M 118.710827 30.219375  L 127.940902 30.219375  L 127.940902 30.219375  L 118.710827 30.219375  z " style="fill:#a1dab4;stroke:#444443;stroke-linejoin:miter;stroke-width:0.5;" />
   </g>
   <g id="patch_34">
    <path clip-path="url(#pe8b4251857)" d="M 127.940902 30.219375  L 137.170977 30.219375  L 137.170977 30.219375  L 127.940902 30.219375  z " style="fill:#a1dab4;stroke:#444443;stroke-linejoin:miter;stroke-width:0.5;" />
   </g>
   <g id="patch_35">
    <path clip-path="url(#pe8b4251857)" d="M 137.170977 30.219375  L 146.401053 30.219375  L 146.401053 30.219375  L 137.170977 30.219375  z " style="fill:#a1dab4;stroke:#444443;stroke-linejoin:miter;stroke-width:0.5;" />
   </g>
   <g id="patch_36">
    <path clip-path="url(#pe8b4251857)" d="M 146.401053 30.219375  L 155.631128 30.219375  L 155.631128 30.219375  L 146.401053 30.219375  z " style="fill:#a1dab4;stroke:#444443;stroke-linejoin:miter;stroke-width:0.5;" />
   </g>
   <g id="patch_37">
    <path clip-path="url(#pe8b4251857)" d="M 155.631128 30.219375  L 164.861203 30.219375  L 164.861203 30.219375  L 155.631128 30.219375  z " style="fill:#a1dab4;stroke:#444443;stroke-linejoin:miter;stroke-width:0.5;" />
   </g>
   <g id="patch_38">
    <path clip-path="url(#pe8b4251857)" d="M 164.861203 30.219375  L 174.091278 30.219375  L 174.091278 30.219375  L 164.861203 30.219375  z " style="fill:#a1dab4;stroke:#444443;stroke-linejoin:miter;stroke-width:0.5;" />
   </g>
   <g id="patch_39">
    <path clip-path="url(#pe8b4251857)" d="M 174.091278 30.219375  L 183.321353 30.219375  L 183.321353 30.219375  L 174.091278 30.219375  z " style="fill:#a1dab4;stroke:#444443;stroke-linejoin:miter;stroke-width:0.5;" />
   </g>
   <g id="patch_40">
    <path clip-path="url(#pe8b4251857)" d="M 183.321353 30.219375  L 192.551429 30.219375  L 192.551429 5.130144  L 183.321353 5.130144  z " style="fill:#a1dab4;stroke:#444443;stroke-linejoin:miter;stroke-width:0.5;" />
   </g>
   <g id="patch_41">
    <path d="M 104.865714 31.034775  L 101.551194 38.373375  L 108.180234 38.373375  z " style="fill:#444443;" />
   </g>
   <g id="matplotlib.axis_1">
    <g id="xtick_1">
     <g id="line2d_1">
      <defs>
       <path d="M 0 0  L 0 3.5  " id="m1a62401b8f" style="stroke:#000000;stroke-width:0.3;" />
      </defs>
      <g>
       <use style="stroke:#000000;stroke-width:0.3;" x="17.18" y="30.219375" xlink:href="#m1a62401b8f" />
      </g>
     </g>
     <g id="text_1">
      
      <defs>
       <path d="M 31.78125 66.40625  Q 24.171875 66.40625 20.328125 58.90625  Q 16.5 51.421875 16.5 36.375  Q 16.5 21.390625 20.328125 13.890625  Q 24.171875 6.390625 31.78125 6.390625  Q 39.453125 6.390625 43.28125 13.890625  Q 47.125 21.390625 47.125 36.375  Q 47.125 51.421875 43.28125 58.90625  Q 39.453125 66.40625 31.78125 66.40625  z M 31.78125 74.21875  Q 44.046875 74.21875 50.515625 64.515625  Q 56.984375 54.828125 56.984375 36.375  Q 56.984375 17.96875 50.515625 8.265625  Q 44.046875 -1.421875 31.78125 -1.421875  Q 19.53125 -1.421875 13.0625 8.265625  Q 6.59375 17.96875 6.59375 36.375  Q 6.59375 54.828125 13.0625 64.515625  Q 19.53125 74.21875 31.78125 74.21875  z " id="DejaVuSans-48" />
      </defs>
      <g style="fill:#444443;" transform="translate(14.635 43.298125)scale(0.08 -0.08)">
       <use xlink:href="#DejaVuSans-48" />
      </g>
     </g>
    </g>
    <g id="xtick_2">
     <g id="line2d_2">
      <g>
       <use style="stroke:#000000;stroke-width:0.3;" x="192.551429" y="30.219375" xlink:href="#m1a62401b8f" />
      </g>
     </g>
     <g id="text_2">
      
      <defs>
       <path d="M 12.40625 8.296875  L 28.515625 8.296875  L 28.515625 63.921875  L 10.984375 60.40625  L 10.984375 69.390625  L 28.421875 72.90625  L 38.28125 72.90625  L 38.28125 8.296875  L 54.390625 8.296875  L 54.390625 0  L 12.40625 0  z " id="DejaVuSans-49" />
      </defs>
      <g style="fill:#444443;" transform="translate(190.006429 43.298125)scale(0.08 -0.08)">
       <use xlink:href="#DejaVuSans-49" />
      </g>
     </g>
    </g>
    <g id="text_3">
     
     <defs>
      <path d="M 6.59375 0  L 6.59375 51.859375  L 14.5 51.859375  L 14.5 44.484375  Q 20.21875 53.03125 31 53.03125  Q 35.6875 53.03125 39.625 51.34375  Q 43.5625 49.65625 45.515625 46.921875  Q 47.46875 44.1875 48.25 40.4375  Q 48.734375 37.984375 48.734375 31.890625  L 48.734375 0  L 39.9375 0  L 39.9375 31.546875  Q 39.9375 36.921875 38.90625 39.578125  Q 37.890625 42.234375 35.28125 43.8125  Q 32.671875 45.40625 29.15625 45.40625  Q 23.53125 45.40625 19.453125 41.84375  Q 15.375 38.28125 15.375 28.328125  L 15.375 0  z " id="ArialMT-110" />
      <path d="M 40.4375 6.390625  Q 35.546875 2.25 31.03125 0.53125  Q 26.515625 -1.171875 21.34375 -1.171875  Q 12.796875 -1.171875 8.203125 3  Q 3.609375 7.171875 3.609375 13.671875  Q 3.609375 17.484375 5.34375 20.625  Q 7.078125 23.78125 9.890625 25.6875  Q 12.703125 27.59375 16.21875 28.5625  Q 18.796875 29.25 24.03125 29.890625  Q 34.671875 31.15625 39.703125 32.90625  Q 39.75 34.71875 39.75 35.203125  Q 39.75 40.578125 37.25 42.78125  Q 33.890625 45.75 27.25 45.75  Q 21.046875 45.75 18.09375 43.578125  Q 15.140625 41.40625 13.71875 35.890625  L 5.125 37.0625  Q 6.296875 42.578125 8.984375 45.96875  Q 11.671875 49.359375 16.75 51.1875  Q 21.828125 53.03125 28.515625 53.03125  Q 35.15625 53.03125 39.296875 51.46875  Q 43.453125 49.90625 45.40625 47.53125  Q 47.359375 45.171875 48.140625 41.546875  Q 48.578125 39.3125 48.578125 33.453125  L 48.578125 21.734375  Q 48.578125 9.46875 49.140625 6.21875  Q 49.703125 2.984375 51.375 0  L 42.1875 0  Q 40.828125 2.734375 40.4375 6.390625  z M 39.703125 26.03125  Q 34.90625 24.078125 25.34375 22.703125  Q 19.921875 21.921875 17.671875 20.9375  Q 15.4375 19.96875 14.203125 18.09375  Q 12.984375 16.21875 12.984375 13.921875  Q 12.984375 10.40625 15.640625 8.0625  Q 18.3125 5.71875 23.4375 5.71875  Q 28.515625 5.71875 32.46875 7.9375  Q 36.421875 10.15625 38.28125 14.015625  Q 39.703125 17 39.703125 22.796875  z " id="ArialMT-97" />
      <path d="M 6.59375 0  L 6.59375 51.859375  L 14.453125 51.859375  L 14.453125 44.578125  Q 16.890625 48.390625 20.9375 50.703125  Q 25 53.03125 30.171875 53.03125  Q 35.9375 53.03125 39.625 50.640625  Q 43.3125 48.25 44.828125 43.953125  Q 50.984375 53.03125 60.84375 53.03125  Q 68.5625 53.03125 72.703125 48.75  Q 76.859375 44.484375 76.859375 35.59375  L 76.859375 0  L 68.109375 0  L 68.109375 32.671875  Q 68.109375 37.9375 67.25 40.25  Q 66.40625 42.578125 64.15625 43.984375  Q 61.921875 45.40625 58.890625 45.40625  Q 53.421875 45.40625 49.796875 41.765625  Q 46.1875 38.140625 46.1875 30.125  L 46.1875 0  L 37.40625 0  L 37.40625 33.6875  Q 37.40625 39.546875 35.25 42.46875  Q 33.109375 45.40625 28.21875 45.40625  Q 24.515625 45.40625 21.359375 43.453125  Q 18.21875 41.5 16.796875 37.734375  Q 15.375 33.984375 15.375 26.90625  L 15.375 0  z " id="ArialMT-109" />
      <path d="M 42.09375 16.703125  L 51.171875 15.578125  Q 49.03125 7.625 43.21875 3.21875  Q 37.40625 -1.171875 28.375 -1.171875  Q 17 -1.171875 10.328125 5.828125  Q 3.65625 12.84375 3.65625 25.484375  Q 3.65625 38.578125 10.390625 45.796875  Q 17.140625 53.03125 27.875 53.03125  Q 38.28125 53.03125 44.875 45.953125  Q 51.46875 38.875 51.46875 26.03125  Q 51.46875 25.25 51.421875 23.6875  L 12.75 23.6875  Q 13.234375 15.140625 17.578125 10.59375  Q 21.921875 6.0625 28.421875 6.0625  Q 33.25 6.0625 36.671875 8.59375  Q 40.09375 11.140625 42.09375 16.703125  z M 13.234375 30.90625  L 42.1875 30.90625  Q 41.609375 37.453125 38.875 40.71875  Q 34.671875 45.796875 27.984375 45.796875  Q 21.921875 45.796875 17.796875 41.75  Q 13.671875 37.703125 13.234375 30.90625  z " id="ArialMT-101" />
     </defs>
     <g style="fill:#444443;" transform="translate(94.2425 57.55125)scale(0.12 -0.12)">
      <use xlink:href="#ArialMT-110" />
      <use x="55.615234" xlink:href="#ArialMT-97" />
      <use x="111.230469" xlink:href="#ArialMT-109" />
      <use x="194.53125" xlink:href="#ArialMT-101" />
     </g>
    </g>
   </g>
   <g id="matplotlib.axis_2">
    <g id="ytick_1">
     <g id="line2d_3">
      <defs>
       <path d="M 0 0  L -3.5 0  " id="m1ac46c19a8" style="stroke:#000000;stroke-width:0.3;" />
      </defs>
      <g>
       <use style="stroke:#000000;stroke-width:0.3;" x="17.18" y="30.219375" xlink:href="#m1ac46c19a8" />
      </g>
     </g>
     <g id="text_4">
      
      <g style="fill:#444443;" transform="translate(5.09 33.25875)scale(0.08 -0.08)">
       <use xlink:href="#DejaVuSans-48" />
      </g>
     </g>
    </g>
    <g id="ytick_2">
     <g id="line2d_4">
      <g>
       <use style="stroke:#000000;stroke-width:0.3;" x="17.18" y="3.039375" xlink:href="#m1ac46c19a8" />
      </g>
     </g>
     <g id="text_5">
      
      <defs>
       <path d="M 10.796875 72.90625  L 49.515625 72.90625  L 49.515625 64.59375  L 19.828125 64.59375  L 19.828125 46.734375  Q 21.96875 47.46875 24.109375 47.828125  Q 26.265625 48.1875 28.421875 48.1875  Q 40.625 48.1875 47.75 41.5  Q 54.890625 34.8125 54.890625 23.390625  Q 54.890625 11.625 47.5625 5.09375  Q 40.234375 -1.421875 26.90625 -1.421875  Q 22.3125 -1.421875 17.546875 -0.640625  Q 12.796875 0.140625 7.71875 1.703125  L 7.71875 11.625  Q 12.109375 9.234375 16.796875 8.0625  Q 21.484375 6.890625 26.703125 6.890625  Q 35.15625 6.890625 40.078125 11.328125  Q 45.015625 15.765625 45.015625 23.390625  Q 45.015625 31 40.078125 35.4375  Q 35.15625 39.890625 26.703125 39.890625  Q 22.75 39.890625 18.8125 39.015625  Q 14.890625 38.140625 10.796875 36.28125  z " id="DejaVuSans-53" />
       <path d="M 19.1875 8.296875  L 53.609375 8.296875  L 53.609375 0  L 7.328125 0  L 7.328125 8.296875  Q 12.9375 14.109375 22.625 23.890625  Q 32.328125 33.6875 34.8125 36.53125  Q 39.546875 41.84375 41.421875 45.53125  Q 43.3125 49.21875 43.3125 52.78125  Q 43.3125 58.59375 39.234375 62.25  Q 35.15625 65.921875 28.609375 65.921875  Q 23.96875 65.921875 18.8125 64.3125  Q 13.671875 62.703125 7.8125 59.421875  L 7.8125 69.390625  Q 13.765625 71.78125 18.9375 73  Q 24.125 74.21875 28.421875 74.21875  Q 39.75 74.21875 46.484375 68.546875  Q 53.21875 62.890625 53.21875 53.421875  Q 53.21875 48.921875 51.53125 44.890625  Q 49.859375 40.875 45.40625 35.40625  Q 44.1875 33.984375 37.640625 27.21875  Q 31.109375 20.453125 19.1875 8.296875  z " id="DejaVuSans-50" />
      </defs>
      <g style="fill:#444443;" transform="translate(0 6.07875)scale(0.08 -0.08)">
       <use xlink:href="#DejaVuSans-53" />
       <use x="63.623047" xlink:href="#DejaVuSans-50" />
      </g>
     </g>
    </g>
   </g>
   <g id="patch_42">
    <path d="M 17.18 30.219375  L 17.18 3.039375  " style="fill:none;stroke:#000000;stroke-linecap:square;stroke-linejoin:miter;stroke-width:0.3;" />
   </g>
   <g id="patch_43">
    <path d="M 17.18 30.219375  L 201.32 30.219375  " style="fill:none;stroke:#000000;stroke-linecap:square;stroke-linejoin:miter;stroke-width:0.3;" />
   </g>
   <g id="text_6">
    
    <defs>
     <path d="M 4.15625 35.296875  Q 4.15625 48 6.765625 55.734375  Q 9.375 63.484375 14.515625 67.671875  Q 19.671875 71.875 27.484375 71.875  Q 33.25 71.875 37.59375 69.546875  Q 41.9375 67.234375 44.765625 62.859375  Q 47.609375 58.5 49.21875 52.21875  Q 50.828125 45.953125 50.828125 35.296875  Q 50.828125 22.703125 48.234375 14.96875  Q 45.65625 7.234375 40.5 3  Q 35.359375 -1.21875 27.484375 -1.21875  Q 17.140625 -1.21875 11.234375 6.203125  Q 4.15625 15.140625 4.15625 35.296875  z M 13.1875 35.296875  Q 13.1875 17.671875 17.3125 11.828125  Q 21.4375 6 27.484375 6  Q 33.546875 6 37.671875 11.859375  Q 41.796875 17.71875 41.796875 35.296875  Q 41.796875 52.984375 37.671875 58.78125  Q 33.546875 64.59375 27.390625 64.59375  Q 21.34375 64.59375 17.71875 59.46875  Q 13.1875 52.9375 13.1875 35.296875  z " id="ArialMT-48" />
     <path d="M 9.078125 0  L 9.078125 10.015625  L 19.09375 10.015625  L 19.09375 0  z " id="ArialMT-46" />
     <path d="M 4.15625 18.75  L 13.375 19.53125  Q 14.40625 12.796875 18.140625 9.390625  Q 21.875 6 27.15625 6  Q 33.5 6 37.890625 10.78125  Q 42.28125 15.578125 42.28125 23.484375  Q 42.28125 31 38.0625 35.34375  Q 33.84375 39.703125 27 39.703125  Q 22.75 39.703125 19.328125 37.765625  Q 15.921875 35.84375 13.96875 32.765625  L 5.71875 33.84375  L 12.640625 70.609375  L 48.25 70.609375  L 48.25 62.203125  L 19.671875 62.203125  L 15.828125 42.96875  Q 22.265625 47.46875 29.34375 47.46875  Q 38.71875 47.46875 45.15625 40.96875  Q 51.609375 34.46875 51.609375 24.265625  Q 51.609375 14.546875 45.953125 7.46875  Q 39.0625 -1.21875 27.15625 -1.21875  Q 17.390625 -1.21875 11.203125 4.25  Q 5.03125 9.71875 4.15625 18.75  z " id="ArialMT-53" />
    </defs>
    <g style="fill:#444443;" transform="translate(97.081339 46.527375)scale(0.08 -0.08)">
     <use xlink:href="#ArialMT-48" />
     <use x="55.615234" xlink:href="#ArialMT-46" />
     <use x="83.398438" xlink:href="#ArialMT-53" />
     <use x="139.013672" xlink:href="#ArialMT-48" />
    </g>
   </g>
  </g>
 </g>
 <defs>
  <clipPath id="pe8b4251857">
   <rect height="27.18" width="184.14" x="17.18" y="3.039375" />
  </clipPath>
 </defs>
</svg></g>

<g class="node" id="node2">
<title>leaf1</title>
<polygon fill="none" points="75,-62 28,-62 28,0 75,0 75,-62" stroke="#444443" stroke-width="0" />
<svg height="54px" preserveAspectRatio="xMinYMin meet" version="1.1" viewBox="0 0 52.548 72.399889" width="39px" x="32.5" y="-58">
 <defs>
  <style type="text/css">
*{stroke-linecap:butt;stroke-linejoin:round;}
  </style>
 </defs>
 <g id="figure_1">
  <g id="patch_1">
   <path d="M 0 72.399889  L 52.548 72.399889  L 52.548 0  L 0 0  z " style="fill:#ffffff;" />
  </g>
  <g id="axes_1">
   <g id="patch_2">
    <path d="M 52.548 26.274  C 52.548 22.82373 51.868372 19.407009 50.548011 16.219375  C 49.22765 13.031742 47.292233 10.135186 44.852524 7.695476  C 42.412814 5.255767 39.516258 3.32035 36.328625 1.999989  C 33.140991 0.679628 29.72427 0 26.274 0  C 22.82373 0 19.407009 0.679628 16.219375 1.999989  C 13.031742 3.32035 10.135186 5.255767 7.695476 7.695476  C 5.255767 10.135186 3.32035 13.031742 1.999989 16.219375  C 0.679628 19.407009 0 22.82373 0 26.274  C 0 29.72427 0.679628 33.140991 1.999989 36.328625  C 3.32035 39.516258 5.255767 42.412814 7.695476 44.852524  C 10.135186 47.292233 13.031742 49.22765 16.219375 50.548011  C 19.407009 51.868372 22.82373 52.548 26.274 52.548  C 29.72427 52.548 33.140991 51.868372 36.328625 50.548011  C 39.516258 49.22765 42.412814 47.292233 44.852524 44.852524  C 47.292233 42.412814 49.22765 39.516258 50.548011 36.328625  C 51.868372 33.140991 52.548 29.72427 52.548 26.274  M 26.274 26.274  M 52.548 26.274  z " style="fill:#fefebb;stroke:#444443;stroke-linejoin:miter;stroke-width:0.5;" />
   </g>
   <g id="text_1">
    
    <defs>
     <path d="M 6.59375 0  L 6.59375 51.859375  L 14.5 51.859375  L 14.5 44.484375  Q 20.21875 53.03125 31 53.03125  Q 35.6875 53.03125 39.625 51.34375  Q 43.5625 49.65625 45.515625 46.921875  Q 47.46875 44.1875 48.25 40.4375  Q 48.734375 37.984375 48.734375 31.890625  L 48.734375 0  L 39.9375 0  L 39.9375 31.546875  Q 39.9375 36.921875 38.90625 39.578125  Q 37.890625 42.234375 35.28125 43.8125  Q 32.671875 45.40625 29.15625 45.40625  Q 23.53125 45.40625 19.453125 41.84375  Q 15.375 38.28125 15.375 28.328125  L 15.375 0  z " id="ArialMT-110" />
     <path d="M 52.828125 42.09375  L 5.5625 42.09375  L 5.5625 50.296875  L 52.828125 50.296875  z M 52.828125 20.359375  L 5.5625 20.359375  L 5.5625 28.5625  L 52.828125 28.5625  z " id="ArialMT-61" />
     <path d="M 4.203125 18.890625  L 12.984375 20.0625  Q 14.5 12.59375 18.140625 9.296875  Q 21.78125 6 27 6  Q 33.203125 6 37.46875 10.296875  Q 41.75 14.59375 41.75 20.953125  Q 41.75 27 37.796875 30.921875  Q 33.84375 34.859375 27.734375 34.859375  Q 25.25 34.859375 21.53125 33.890625  L 22.515625 41.609375  Q 23.390625 41.5 23.921875 41.5  Q 29.546875 41.5 34.03125 44.421875  Q 38.53125 47.359375 38.53125 53.46875  Q 38.53125 58.296875 35.25 61.46875  Q 31.984375 64.65625 26.8125 64.65625  Q 21.6875 64.65625 18.265625 61.421875  Q 14.84375 58.203125 13.875 51.765625  L 5.078125 53.328125  Q 6.6875 62.15625 12.390625 67.015625  Q 18.109375 71.875 26.609375 71.875  Q 32.46875 71.875 37.390625 69.359375  Q 42.328125 66.84375 44.9375 62.5  Q 47.5625 58.15625 47.5625 53.265625  Q 47.5625 48.640625 45.0625 44.828125  Q 42.578125 41.015625 37.703125 38.765625  Q 44.046875 37.3125 47.5625 32.6875  Q 51.078125 28.078125 51.078125 21.140625  Q 51.078125 11.765625 44.234375 5.25  Q 37.40625 -1.265625 26.953125 -1.265625  Q 17.53125 -1.265625 11.296875 4.34375  Q 5.078125 9.96875 4.203125 18.890625  z " id="ArialMT-51" />
     <path d="M 49.75 54.046875  L 41.015625 53.375  Q 39.84375 58.546875 37.703125 60.890625  Q 34.125 64.65625 28.90625 64.65625  Q 24.703125 64.65625 21.53125 62.3125  Q 17.390625 59.28125 14.984375 53.46875  Q 12.59375 47.65625 12.5 36.921875  Q 15.671875 41.75 20.265625 44.09375  Q 24.859375 46.4375 29.890625 46.4375  Q 38.671875 46.4375 44.84375 39.96875  Q 51.03125 33.5 51.03125 23.25  Q 51.03125 16.5 48.125 10.71875  Q 45.21875 4.9375 40.140625 1.859375  Q 35.0625 -1.21875 28.609375 -1.21875  Q 17.625 -1.21875 10.6875 6.859375  Q 3.765625 14.9375 3.765625 33.5  Q 3.765625 54.25 11.421875 63.671875  Q 18.109375 71.875 29.4375 71.875  Q 37.890625 71.875 43.28125 67.140625  Q 48.6875 62.40625 49.75 54.046875  z M 13.875 23.1875  Q 13.875 18.65625 15.796875 14.5  Q 17.71875 10.359375 21.1875 8.171875  Q 24.65625 6 28.46875 6  Q 34.03125 6 38.03125 10.484375  Q 42.046875 14.984375 42.046875 22.703125  Q 42.046875 30.125 38.078125 34.390625  Q 34.125 38.671875 28.125 38.671875  Q 22.171875 38.671875 18.015625 34.390625  Q 13.875 30.125 13.875 23.1875  z " id="ArialMT-54" />
    </defs>
    <g style="fill:#444443;" transform="translate(16.138453 61.091951)scale(0.09 -0.09)">
     <use xlink:href="#ArialMT-110" />
     <use x="55.615234" xlink:href="#ArialMT-61" />
     <use x="114.013672" xlink:href="#ArialMT-51" />
     <use x="169.628906" xlink:href="#ArialMT-54" />
    </g>
    
    <defs>
     <path d="M 3.328125 25.921875  Q 3.328125 40.328125 11.328125 47.265625  Q 18.015625 53.03125 27.640625 53.03125  Q 38.328125 53.03125 45.109375 46.015625  Q 51.90625 39.015625 51.90625 26.65625  Q 51.90625 16.65625 48.90625 10.90625  Q 45.90625 5.171875 40.15625 2  Q 34.421875 -1.171875 27.640625 -1.171875  Q 16.75 -1.171875 10.03125 5.8125  Q 3.328125 12.796875 3.328125 25.921875  z M 12.359375 25.921875  Q 12.359375 15.96875 16.703125 11.015625  Q 21.046875 6.0625 27.640625 6.0625  Q 34.1875 6.0625 38.53125 11.03125  Q 42.875 16.015625 42.875 26.21875  Q 42.875 35.84375 38.5 40.796875  Q 34.125 45.75 27.640625 45.75  Q 21.046875 45.75 16.703125 40.8125  Q 12.359375 35.890625 12.359375 25.921875  z " id="ArialMT-111" />
     <path d="M 25.78125 7.859375  L 27.046875 0.09375  Q 23.34375 -0.6875 20.40625 -0.6875  Q 15.625 -0.6875 12.984375 0.828125  Q 10.359375 2.34375 9.28125 4.8125  Q 8.203125 7.28125 8.203125 15.1875  L 8.203125 45.015625  L 1.765625 45.015625  L 1.765625 51.859375  L 8.203125 51.859375  L 8.203125 64.703125  L 16.9375 69.96875  L 16.9375 51.859375  L 25.78125 51.859375  L 25.78125 45.015625  L 16.9375 45.015625  L 16.9375 14.703125  Q 16.9375 10.9375 17.40625 9.859375  Q 17.875 8.796875 18.921875 8.15625  Q 19.96875 7.515625 21.921875 7.515625  Q 23.390625 7.515625 25.78125 7.859375  z " id="ArialMT-116" />
     <path d="M 6.59375 0  L 6.59375 71.578125  L 15.375 71.578125  L 15.375 45.90625  Q 21.53125 53.03125 30.90625 53.03125  Q 36.671875 53.03125 40.921875 50.75  Q 45.171875 48.484375 47 44.484375  Q 48.828125 40.484375 48.828125 32.859375  L 48.828125 0  L 40.046875 0  L 40.046875 32.859375  Q 40.046875 39.453125 37.1875 42.453125  Q 34.328125 45.453125 29.109375 45.453125  Q 25.203125 45.453125 21.75 43.421875  Q 18.3125 41.40625 16.84375 37.9375  Q 15.375 34.46875 15.375 28.375  L 15.375 0  z " id="ArialMT-104" />
     <path d="M 42.09375 16.703125  L 51.171875 15.578125  Q 49.03125 7.625 43.21875 3.21875  Q 37.40625 -1.171875 28.375 -1.171875  Q 17 -1.171875 10.328125 5.828125  Q 3.65625 12.84375 3.65625 25.484375  Q 3.65625 38.578125 10.390625 45.796875  Q 17.140625 53.03125 27.875 53.03125  Q 38.28125 53.03125 44.875 45.953125  Q 51.46875 38.875 51.46875 26.03125  Q 51.46875 25.25 51.421875 23.6875  L 12.75 23.6875  Q 13.234375 15.140625 17.578125 10.59375  Q 21.921875 6.0625 28.421875 6.0625  Q 33.25 6.0625 36.671875 8.59375  Q 40.09375 11.140625 42.09375 16.703125  z M 13.234375 30.90625  L 42.1875 30.90625  Q 41.609375 37.453125 38.875 40.71875  Q 34.671875 45.796875 27.984375 45.796875  Q 21.921875 45.796875 17.796875 41.75  Q 13.671875 37.703125 13.234375 30.90625  z " id="ArialMT-101" />
     <path d="M 6.5 0  L 6.5 51.859375  L 14.40625 51.859375  L 14.40625 44  Q 17.4375 49.515625 20 51.265625  Q 22.5625 53.03125 25.640625 53.03125  Q 30.078125 53.03125 34.671875 50.203125  L 31.640625 42.046875  Q 28.421875 43.953125 25.203125 43.953125  Q 22.3125 43.953125 20.015625 42.21875  Q 17.71875 40.484375 16.75 37.40625  Q 15.28125 32.71875 15.28125 27.15625  L 15.28125 0  z " id="ArialMT-114" />
    </defs>
    <g style="fill:#444443;" transform="translate(16.018219 70.611139)scale(0.09 -0.09)">
     <use xlink:href="#ArialMT-111" />
     <use x="55.615234" xlink:href="#ArialMT-116" />
     <use x="83.398438" xlink:href="#ArialMT-104" />
     <use x="139.013672" xlink:href="#ArialMT-101" />
     <use x="194.628906" xlink:href="#ArialMT-114" />
    </g>
   </g>
  </g>
 </g>
</svg></g>

<g class="edge" id="edge1">
<title>node0-&gt;leaf1</title>
<path d="M71.1,-91.85C68.47,-83.82 65.52,-74.82 62.73,-66.29" fill="none" stroke="#444443" stroke-width="0.3" />
<polygon fill="#444443" points="63.95,-65.52 61.37,-62.15 61.29,-66.39 63.95,-65.52" stroke="#444443" stroke-width="0.3" />
<text font-family="Times,serif" font-size="14.00" text-anchor="start" x="68.5" y="-72.8">&lt;</text>
</g>

<g class="node" id="node3">
<title>leaf2</title>
<polygon fill="none" points="128.5,-58.5 88.5,-58.5 88.5,-3.5 128.5,-3.5 128.5,-58.5" stroke="#444443" stroke-width="0" />
<svg height="47px" preserveAspectRatio="xMinYMin meet" version="1.1" viewBox="0 0 42.884 62.349329" width="32px" x="92.5" y="-54">
 <defs>
  <style type="text/css">
*{stroke-linecap:butt;stroke-linejoin:round;}
  </style>
 </defs>
 <g id="figure_1">
  <g id="patch_1">
   <path d="M 0 62.349329  L 42.884 62.349329  L 42.884 -0  L 0 -0  z " style="fill:#ffffff;" />
  </g>
  <g id="axes_1">
   <g id="patch_2">
    <path d="M 42.884 21.442  C 42.884 18.626262 42.329361 15.837904 41.251825 13.236502  C 40.174289 10.635099 38.594811 8.271244 36.603784 6.280216  C 34.612756 4.289189 32.248901 2.709711 29.647498 1.632175  C 27.046096 0.554639 24.257738 -0 21.442 -0  C 18.626262 -0 15.837904 0.554639 13.236502 1.632175  C 10.635099 2.709711 8.271244 4.289189 6.280216 6.280216  C 4.289189 8.271244 2.709711 10.635099 1.632175 13.236502  C 0.554639 15.837904 0 18.626262 0 21.442  C 0 24.257738 0.554639 27.046096 1.632175 29.647498  C 2.709711 32.248901 4.289189 34.612756 6.280216 36.603784  C 8.271244 38.594811 10.635099 40.174289 13.236502 41.251825  C 15.837904 42.329361 18.626262 42.884 21.442 42.884  C 24.257738 42.884 27.046096 42.329361 29.647498 41.251825  C 32.248901 40.174289 34.612756 38.594811 36.603784 36.603784  C 38.594811 34.612756 40.174289 32.248901 41.251825 29.647498  C 42.329361 27.046096 42.884 24.257738 42.884 21.442  M 21.442 21.442  M 42.884 21.442  z " style="fill:#a1dab4;stroke:#444443;stroke-linejoin:miter;stroke-width:0.5;" />
   </g>
   <g id="text_1">
    
    <defs>
     <path d="M 6.59375 0  L 6.59375 51.859375  L 14.5 51.859375  L 14.5 44.484375  Q 20.21875 53.03125 31 53.03125  Q 35.6875 53.03125 39.625 51.34375  Q 43.5625 49.65625 45.515625 46.921875  Q 47.46875 44.1875 48.25 40.4375  Q 48.734375 37.984375 48.734375 31.890625  L 48.734375 0  L 39.9375 0  L 39.9375 31.546875  Q 39.9375 36.921875 38.90625 39.578125  Q 37.890625 42.234375 35.28125 43.8125  Q 32.671875 45.40625 29.15625 45.40625  Q 23.53125 45.40625 19.453125 41.84375  Q 15.375 38.28125 15.375 28.328125  L 15.375 0  z " id="ArialMT-110" />
     <path d="M 52.828125 42.09375  L 5.5625 42.09375  L 5.5625 50.296875  L 52.828125 50.296875  z M 52.828125 20.359375  L 5.5625 20.359375  L 5.5625 28.5625  L 52.828125 28.5625  z " id="ArialMT-61" />
     <path d="M 50.34375 8.453125  L 50.34375 0  L 3.03125 0  Q 2.9375 3.171875 4.046875 6.109375  Q 5.859375 10.9375 9.828125 15.625  Q 13.8125 20.3125 21.34375 26.46875  Q 33.015625 36.03125 37.109375 41.625  Q 41.21875 47.21875 41.21875 52.203125  Q 41.21875 57.421875 37.46875 61  Q 33.734375 64.59375 27.734375 64.59375  Q 21.390625 64.59375 17.578125 60.78125  Q 13.765625 56.984375 13.71875 50.25  L 4.6875 51.171875  Q 5.609375 61.28125 11.65625 66.578125  Q 17.71875 71.875 27.9375 71.875  Q 38.234375 71.875 44.234375 66.15625  Q 50.25 60.453125 50.25 52  Q 50.25 47.703125 48.484375 43.546875  Q 46.734375 39.40625 42.65625 34.8125  Q 38.578125 30.21875 29.109375 22.21875  Q 21.1875 15.578125 18.9375 13.203125  Q 16.703125 10.84375 15.234375 8.453125  z " id="ArialMT-50" />
     <path d="M 17.671875 38.8125  Q 12.203125 40.828125 9.5625 44.53125  Q 6.9375 48.25 6.9375 53.421875  Q 6.9375 61.234375 12.546875 66.546875  Q 18.171875 71.875 27.484375 71.875  Q 36.859375 71.875 42.578125 66.421875  Q 48.296875 60.984375 48.296875 53.171875  Q 48.296875 48.1875 45.671875 44.5  Q 43.0625 40.828125 37.75 38.8125  Q 44.34375 36.671875 47.78125 31.875  Q 51.21875 27.09375 51.21875 20.453125  Q 51.21875 11.28125 44.71875 5.03125  Q 38.234375 -1.21875 27.640625 -1.21875  Q 17.046875 -1.21875 10.546875 5.046875  Q 4.046875 11.328125 4.046875 20.703125  Q 4.046875 27.6875 7.59375 32.390625  Q 11.140625 37.109375 17.671875 38.8125  z M 15.921875 53.71875  Q 15.921875 48.640625 19.1875 45.40625  Q 22.46875 42.1875 27.6875 42.1875  Q 32.765625 42.1875 36.015625 45.375  Q 39.265625 48.578125 39.265625 53.21875  Q 39.265625 58.0625 35.90625 61.359375  Q 32.5625 64.65625 27.59375 64.65625  Q 22.5625 64.65625 19.234375 61.421875  Q 15.921875 58.203125 15.921875 53.71875  z M 13.09375 20.65625  Q 13.09375 16.890625 14.875 13.375  Q 16.65625 9.859375 20.171875 7.921875  Q 23.6875 6 27.734375 6  Q 34.03125 6 38.125 10.046875  Q 42.234375 14.109375 42.234375 20.359375  Q 42.234375 26.703125 38.015625 30.859375  Q 33.796875 35.015625 27.4375 35.015625  Q 21.234375 35.015625 17.15625 30.90625  Q 13.09375 26.8125 13.09375 20.65625  z " id="ArialMT-56" />
    </defs>
    <g style="fill:#444443;" transform="translate(11.306453 51.041391)scale(0.09 -0.09)">
     <use xlink:href="#ArialMT-110" />
     <use x="55.615234" xlink:href="#ArialMT-61" />
     <use x="114.013672" xlink:href="#ArialMT-50" />
     <use x="169.628906" xlink:href="#ArialMT-56" />
    </g>
    
    <defs>
     <path d="M 14.703125 0  L 6.546875 0  L 6.546875 71.578125  L 15.328125 71.578125  L 15.328125 46.046875  Q 20.90625 53.03125 29.546875 53.03125  Q 34.328125 53.03125 38.59375 51.09375  Q 42.875 49.171875 45.625 45.671875  Q 48.390625 42.1875 49.953125 37.25  Q 51.515625 32.328125 51.515625 26.703125  Q 51.515625 13.375 44.921875 6.09375  Q 38.328125 -1.171875 29.109375 -1.171875  Q 19.921875 -1.171875 14.703125 6.5  z M 14.59375 26.3125  Q 14.59375 17 17.140625 12.84375  Q 21.296875 6.0625 28.375 6.0625  Q 34.125 6.0625 38.328125 11.0625  Q 42.53125 16.0625 42.53125 25.984375  Q 42.53125 36.140625 38.5 40.96875  Q 34.46875 45.796875 28.765625 45.796875  Q 23 45.796875 18.796875 40.796875  Q 14.59375 35.796875 14.59375 26.3125  z " id="ArialMT-98" />
    </defs>
    <g style="fill:#444443;" transform="translate(18.939578 60.560579)scale(0.09 -0.09)">
     <use xlink:href="#ArialMT-98" />
    </g>
   </g>
  </g>
 </g>
</svg></g>

<g class="edge" id="edge2">
<title>node0-&gt;leaf2</title>
<path d="M88.2,-91.85C91.35,-82.55 94.94,-71.97 98.22,-62.31" fill="none" stroke="#444443" stroke-width="0.3" />
<polygon fill="#444443" points="99.54,-62.76 99.5,-58.52 96.89,-61.86 99.54,-62.76" stroke="#444443" stroke-width="0.3" />
<text font-family="Times,serif" font-size="14.00" text-anchor="start" x="95.5" y="-72.8">&#8805;</text>
</g>


<g class="node" id="node4">
<title>legend</title>
<polygon fill="none" points="220.5,-141.5 166.5,-141.5 166.5,-95.5 220.5,-95.5 220.5,-141.5" stroke="black" stroke-width="0" />
<svg height="42px" preserveAspectRatio="xMinYMin meet" version="1.1" viewBox="0 0 66.140625 55.1125" width="50px" x="168.5" y="-139.5">
 <defs>
  <style type="text/css">
*{stroke-linecap:butt;stroke-linejoin:round;}
  </style>
 </defs>
 <g id="figure_1">
  <g id="patch_1">
   <path d="M 0 55.1125  L 66.140625 55.1125  L 66.140625 0  L 0 0  z " style="fill:#ffffff;" />
  </g>
  <g id="axes_1">
   <g id="legend_1">
    <g id="patch_2">
     <path d="M 2 55.1125  L 64.140625 55.1125  Q 66.140625 55.1125 66.140625 53.1125  L 66.140625 2  Q 66.140625 -0 64.140625 -0  L 2 -0  Q 0 -0 0 2  L 0 53.1125  Q 0 55.1125 2 55.1125  z " style="fill:#ffffff;opacity:0.8;stroke:#444443;stroke-linejoin:miter;stroke-width:0.5;" />
    </g>
    <g id="text_1">
     
     <defs>
      <path d="M 27.484375 70.21875  L 27.484375 54.6875  L 45.515625 54.6875  L 45.515625 42.1875  L 27.484375 42.1875  L 27.484375 19  Q 27.484375 15.1875 29 13.84375  Q 30.515625 12.5 35.015625 12.5  L 44 12.5  L 44 0  L 29 0  Q 18.65625 0 14.328125 4.3125  Q 10.015625 8.640625 10.015625 19  L 10.015625 42.1875  L 1.3125 42.1875  L 1.3125 54.6875  L 10.015625 54.6875  L 10.015625 70.21875  z " id="DejaVuSans-Bold-116" />
      <path d="M 32.90625 24.609375  Q 27.4375 24.609375 24.671875 22.75  Q 21.921875 20.90625 21.921875 17.28125  Q 21.921875 13.96875 24.140625 12.078125  Q 26.375 10.203125 30.328125 10.203125  Q 35.25 10.203125 38.625 13.734375  Q 42 17.28125 42 22.609375  L 42 24.609375  z M 59.625 31.203125  L 59.625 0  L 42 0  L 42 8.109375  Q 38.484375 3.125 34.078125 0.84375  Q 29.6875 -1.421875 23.390625 -1.421875  Q 14.890625 -1.421875 9.59375 3.53125  Q 4.296875 8.5 4.296875 16.40625  Q 4.296875 26.03125 10.90625 30.515625  Q 17.53125 35.015625 31.6875 35.015625  L 42 35.015625  L 42 36.375  Q 42 40.53125 38.71875 42.453125  Q 35.453125 44.390625 28.515625 44.390625  Q 22.90625 44.390625 18.0625 43.265625  Q 13.234375 42.140625 9.078125 39.890625  L 9.078125 53.21875  Q 14.703125 54.59375 20.359375 55.296875  Q 26.03125 56 31.6875 56  Q 46.484375 56 53.046875 50.171875  Q 59.625 44.34375 59.625 31.203125  z " id="DejaVuSans-Bold-97" />
      <path d="M 49.03125 39.796875  Q 46.734375 40.875 44.453125 41.375  Q 42.1875 41.890625 39.890625 41.890625  Q 33.15625 41.890625 29.515625 37.5625  Q 25.875 33.25 25.875 25.203125  L 25.875 0  L 8.40625 0  L 8.40625 54.6875  L 25.875 54.6875  L 25.875 45.703125  Q 29.25 51.078125 33.609375 53.53125  Q 37.984375 56 44.09375 56  Q 44.96875 56 45.984375 55.921875  Q 47.015625 55.859375 48.96875 55.609375  z " id="DejaVuSans-Bold-114" />
      <path d="M 45.609375 9.28125  Q 42 4.5 37.640625 2.25  Q 33.296875 0 27.59375 0  Q 17.578125 0 11.03125 7.875  Q 4.5 15.765625 4.5 27.984375  Q 4.5 40.234375 11.03125 48.0625  Q 17.578125 55.90625 27.59375 55.90625  Q 33.296875 55.90625 37.640625 53.65625  Q 42 51.421875 45.609375 46.578125  L 45.609375 54.6875  L 63.1875 54.6875  L 63.1875 5.515625  Q 63.1875 -7.671875 54.859375 -14.625  Q 46.53125 -21.578125 30.71875 -21.578125  Q 25.59375 -21.578125 20.796875 -20.796875  Q 16.015625 -20.015625 11.1875 -18.40625  L 11.1875 -4.78125  Q 15.765625 -7.421875 20.15625 -8.71875  Q 24.5625 -10.015625 29 -10.015625  Q 37.59375 -10.015625 41.59375 -6.25  Q 45.609375 -2.484375 45.609375 5.515625  z M 34.078125 43.3125  Q 28.65625 43.3125 25.625 39.296875  Q 22.609375 35.296875 22.609375 27.984375  Q 22.609375 20.453125 25.53125 16.578125  Q 28.46875 12.703125 34.078125 12.703125  Q 39.546875 12.703125 42.578125 16.703125  Q 45.609375 20.703125 45.609375 27.984375  Q 45.609375 35.296875 42.578125 39.296875  Q 39.546875 43.3125 34.078125 43.3125  z " id="DejaVuSans-Bold-103" />
      <path d="M 62.984375 27.484375  L 62.984375 22.515625  L 22.125 22.515625  Q 22.75 16.359375 26.5625 13.28125  Q 30.375 10.203125 37.203125 10.203125  Q 42.71875 10.203125 48.5 11.84375  Q 54.296875 13.484375 60.40625 16.796875  L 60.40625 3.328125  Q 54.203125 0.984375 48 -0.21875  Q 41.796875 -1.421875 35.59375 -1.421875  Q 20.75 -1.421875 12.515625 6.125  Q 4.296875 13.671875 4.296875 27.296875  Q 4.296875 40.671875 12.375 48.328125  Q 20.453125 56 34.625 56  Q 47.515625 56 55.25 48.234375  Q 62.984375 40.484375 62.984375 27.484375  z M 45.015625 33.296875  Q 45.015625 38.28125 42.109375 41.328125  Q 39.203125 44.390625 34.515625 44.390625  Q 29.4375 44.390625 26.265625 41.53125  Q 23.09375 38.671875 22.3125 33.296875  z " id="DejaVuSans-Bold-101" />
     </defs>
     <g style="fill:#444443;" transform="translate(15.480469 15.598437)scale(0.1 -0.1)">
      <use xlink:href="#DejaVuSans-Bold-116" />
      <use x="47.802734" xlink:href="#DejaVuSans-Bold-97" />
      <use x="115.283203" xlink:href="#DejaVuSans-Bold-114" />
      <use x="164.599609" xlink:href="#DejaVuSans-Bold-103" />
      <use x="236.181641" xlink:href="#DejaVuSans-Bold-101" />
      <use x="304.003906" xlink:href="#DejaVuSans-Bold-116" />
     </g>
    </g>
    <g id="patch_3">
     <path d="M 8 30.354687  L 28 30.354687  L 28 23.354687  L 8 23.354687  z " style="fill:#fefebb;stroke:#444443;stroke-linejoin:miter;stroke-width:0.4;" />
    </g>
    <g id="text_2">
     
     <defs>
      <path d="M 30.609375 48.390625  Q 23.390625 48.390625 19.1875 42.75  Q 14.984375 37.109375 14.984375 27.296875  Q 14.984375 17.484375 19.15625 11.84375  Q 23.34375 6.203125 30.609375 6.203125  Q 37.796875 6.203125 41.984375 11.859375  Q 46.1875 17.53125 46.1875 27.296875  Q 46.1875 37.015625 41.984375 42.703125  Q 37.796875 48.390625 30.609375 48.390625  z M 30.609375 56  Q 42.328125 56 49.015625 48.375  Q 55.71875 40.765625 55.71875 27.296875  Q 55.71875 13.875 49.015625 6.21875  Q 42.328125 -1.421875 30.609375 -1.421875  Q 18.84375 -1.421875 12.171875 6.21875  Q 5.515625 13.875 5.515625 27.296875  Q 5.515625 40.765625 12.171875 48.375  Q 18.84375 56 30.609375 56  z " id="DejaVuSans-111" />
      <path d="M 18.3125 70.21875  L 18.3125 54.6875  L 36.8125 54.6875  L 36.8125 47.703125  L 18.3125 47.703125  L 18.3125 18.015625  Q 18.3125 11.328125 20.140625 9.421875  Q 21.96875 7.515625 27.59375 7.515625  L 36.8125 7.515625  L 36.8125 0  L 27.59375 0  Q 17.1875 0 13.234375 3.875  Q 9.28125 7.765625 9.28125 18.015625  L 9.28125 47.703125  L 2.6875 47.703125  L 2.6875 54.6875  L 9.28125 54.6875  L 9.28125 70.21875  z " id="DejaVuSans-116" />
      <path d="M 54.890625 33.015625  L 54.890625 0  L 45.90625 0  L 45.90625 32.71875  Q 45.90625 40.484375 42.875 44.328125  Q 39.84375 48.1875 33.796875 48.1875  Q 26.515625 48.1875 22.3125 43.546875  Q 18.109375 38.921875 18.109375 30.90625  L 18.109375 0  L 9.078125 0  L 9.078125 75.984375  L 18.109375 75.984375  L 18.109375 46.1875  Q 21.34375 51.125 25.703125 53.5625  Q 30.078125 56 35.796875 56  Q 45.21875 56 50.046875 50.171875  Q 54.890625 44.34375 54.890625 33.015625  z " id="DejaVuSans-104" />
      <path d="M 56.203125 29.59375  L 56.203125 25.203125  L 14.890625 25.203125  Q 15.484375 15.921875 20.484375 11.0625  Q 25.484375 6.203125 34.421875 6.203125  Q 39.59375 6.203125 44.453125 7.46875  Q 49.3125 8.734375 54.109375 11.28125  L 54.109375 2.78125  Q 49.265625 0.734375 44.1875 -0.34375  Q 39.109375 -1.421875 33.890625 -1.421875  Q 20.796875 -1.421875 13.15625 6.1875  Q 5.515625 13.8125 5.515625 26.8125  Q 5.515625 40.234375 12.765625 48.109375  Q 20.015625 56 32.328125 56  Q 43.359375 56 49.78125 48.890625  Q 56.203125 41.796875 56.203125 29.59375  z M 47.21875 32.234375  Q 47.125 39.59375 43.09375 43.984375  Q 39.0625 48.390625 32.421875 48.390625  Q 24.90625 48.390625 20.390625 44.140625  Q 15.875 39.890625 15.1875 32.171875  z " id="DejaVuSans-101" />
      <path d="M 41.109375 46.296875  Q 39.59375 47.171875 37.8125 47.578125  Q 36.03125 48 33.890625 48  Q 26.265625 48 22.1875 43.046875  Q 18.109375 38.09375 18.109375 28.8125  L 18.109375 0  L 9.078125 0  L 9.078125 54.6875  L 18.109375 54.6875  L 18.109375 46.1875  Q 20.953125 51.171875 25.484375 53.578125  Q 30.03125 56 36.53125 56  Q 37.453125 56 38.578125 55.875  Q 39.703125 55.765625 41.0625 55.515625  z " id="DejaVuSans-114" />
     </defs>
     <g style="fill:#444443;" transform="translate(31.5 30.354687)scale(0.1 -0.1)">
      <use xlink:href="#DejaVuSans-111" />
      <use x="61.181641" xlink:href="#DejaVuSans-116" />
      <use x="100.390625" xlink:href="#DejaVuSans-104" />
      <use x="163.769531" xlink:href="#DejaVuSans-101" />
      <use x="225.292969" xlink:href="#DejaVuSans-114" />
     </g>
    </g>
    <g id="patch_4">
     <path d="M 8 45.032812  L 28 45.032812  L 28 38.032812  L 8 38.032812  z " style="fill:#a1dab4;stroke:#444443;stroke-linejoin:miter;stroke-width:0.4;" />
    </g>
    <g id="text_3">
     
     <defs>
      <path d="M 48.6875 27.296875  Q 48.6875 37.203125 44.609375 42.84375  Q 40.53125 48.484375 33.40625 48.484375  Q 26.265625 48.484375 22.1875 42.84375  Q 18.109375 37.203125 18.109375 27.296875  Q 18.109375 17.390625 22.1875 11.75  Q 26.265625 6.109375 33.40625 6.109375  Q 40.53125 6.109375 44.609375 11.75  Q 48.6875 17.390625 48.6875 27.296875  z M 18.109375 46.390625  Q 20.953125 51.265625 25.265625 53.625  Q 29.59375 56 35.59375 56  Q 45.5625 56 51.78125 48.09375  Q 58.015625 40.1875 58.015625 27.296875  Q 58.015625 14.40625 51.78125 6.484375  Q 45.5625 -1.421875 35.59375 -1.421875  Q 29.59375 -1.421875 25.265625 0.953125  Q 20.953125 3.328125 18.109375 8.203125  L 18.109375 0  L 9.078125 0  L 9.078125 75.984375  L 18.109375 75.984375  z " id="DejaVuSans-98" />
     </defs>
     <g style="fill:#444443;" transform="translate(31.5 45.032812)scale(0.1 -0.1)">
      <use xlink:href="#DejaVuSans-98" />
     </g>
    </g>
   </g>
  </g>
 </g>
</svg></g>
</g>
</svg>